<mxfile host="app.diagrams.net" modified="2023-12-08T17:25:49.572Z" agent="Mozilla/5.0 (Windows NT 10.0; Win64; x64) AppleWebKit/537.36 (KHTML, like Gecko) Chrome/119.0.0.0 Safari/537.36" etag="ekH6Clq-5KxnY_hsT-4K" version="22.1.7" type="github">
  <diagram name="Страница — 1" id="WSpf2R3lcupBbCnASCNv">
    <mxGraphModel dx="875" dy="472" grid="1" gridSize="10" guides="1" tooltips="1" connect="1" arrows="1" fold="1" page="1" pageScale="1" pageWidth="827" pageHeight="1169" math="0" shadow="0">
      <root>
        <mxCell id="0" />
        <mxCell id="1" parent="0" />
        <mxCell id="o2LxJ038xUt1YhMu7u4r-6" value="Game" style="swimlane;fontStyle=1;align=center;verticalAlign=top;childLayout=stackLayout;horizontal=1;startSize=26;horizontalStack=0;resizeParent=1;resizeParentMax=0;resizeLast=0;collapsible=1;marginBottom=0;whiteSpace=wrap;html=1;" vertex="1" parent="1">
          <mxGeometry x="340" y="90" width="190" height="160" as="geometry">
            <mxRectangle x="340" y="90" width="70" height="30" as="alternateBounds" />
          </mxGeometry>
        </mxCell>
        <mxCell id="o2LxJ038xUt1YhMu7u4r-7" value="- players:Player[]&lt;br&gt;- lineLenght:int&lt;br&gt;- currentPlayerStep : int" style="text;strokeColor=none;fillColor=none;align=left;verticalAlign=top;spacingLeft=4;spacingRight=4;overflow=hidden;rotatable=0;points=[[0,0.5],[1,0.5]];portConstraint=eastwest;whiteSpace=wrap;html=1;" vertex="1" parent="o2LxJ038xUt1YhMu7u4r-6">
          <mxGeometry y="26" width="190" height="74" as="geometry" />
        </mxCell>
        <mxCell id="o2LxJ038xUt1YhMu7u4r-8" value="" style="line;strokeWidth=1;fillColor=none;align=left;verticalAlign=middle;spacingTop=-1;spacingLeft=3;spacingRight=3;rotatable=0;labelPosition=right;points=[];portConstraint=eastwest;strokeColor=inherit;" vertex="1" parent="o2LxJ038xUt1YhMu7u4r-6">
          <mxGeometry y="100" width="190" height="8" as="geometry" />
        </mxCell>
        <mxCell id="o2LxJ038xUt1YhMu7u4r-9" value="+ Game (playersCount:int) : void&lt;br&gt;+ FinishGame () : void" style="text;strokeColor=none;fillColor=none;align=left;verticalAlign=top;spacingLeft=4;spacingRight=4;overflow=hidden;rotatable=0;points=[[0,0.5],[1,0.5]];portConstraint=eastwest;whiteSpace=wrap;html=1;" vertex="1" parent="o2LxJ038xUt1YhMu7u4r-6">
          <mxGeometry y="108" width="190" height="52" as="geometry" />
        </mxCell>
        <mxCell id="o2LxJ038xUt1YhMu7u4r-10" value="Player" style="swimlane;fontStyle=1;align=center;verticalAlign=top;childLayout=stackLayout;horizontal=1;startSize=26;horizontalStack=0;resizeParent=1;resizeParentMax=0;resizeLast=0;collapsible=1;marginBottom=0;whiteSpace=wrap;html=1;" vertex="1" parent="1">
          <mxGeometry x="620" y="280" width="160" height="190" as="geometry" />
        </mxCell>
        <mxCell id="o2LxJ038xUt1YhMu7u4r-11" value="+ hand: Hand&lt;br&gt;+ name: string" style="text;strokeColor=none;fillColor=none;align=left;verticalAlign=top;spacingLeft=4;spacingRight=4;overflow=hidden;rotatable=0;points=[[0,0.5],[1,0.5]];portConstraint=eastwest;whiteSpace=wrap;html=1;" vertex="1" parent="o2LxJ038xUt1YhMu7u4r-10">
          <mxGeometry y="26" width="160" height="64" as="geometry" />
        </mxCell>
        <mxCell id="o2LxJ038xUt1YhMu7u4r-12" value="" style="line;strokeWidth=1;fillColor=none;align=left;verticalAlign=middle;spacingTop=-1;spacingLeft=3;spacingRight=3;rotatable=0;labelPosition=right;points=[];portConstraint=eastwest;strokeColor=inherit;" vertex="1" parent="o2LxJ038xUt1YhMu7u4r-10">
          <mxGeometry y="90" width="160" height="8" as="geometry" />
        </mxCell>
        <mxCell id="o2LxJ038xUt1YhMu7u4r-13" value="+ CreateStep ()" style="text;strokeColor=none;fillColor=none;align=left;verticalAlign=top;spacingLeft=4;spacingRight=4;overflow=hidden;rotatable=0;points=[[0,0.5],[1,0.5]];portConstraint=eastwest;whiteSpace=wrap;html=1;" vertex="1" parent="o2LxJ038xUt1YhMu7u4r-10">
          <mxGeometry y="98" width="160" height="92" as="geometry" />
        </mxCell>
        <mxCell id="o2LxJ038xUt1YhMu7u4r-14" value="Hand" style="swimlane;fontStyle=1;align=center;verticalAlign=top;childLayout=stackLayout;horizontal=1;startSize=26;horizontalStack=0;resizeParent=1;resizeParentMax=0;resizeLast=0;collapsible=1;marginBottom=0;whiteSpace=wrap;html=1;" vertex="1" parent="1">
          <mxGeometry x="390" y="530" width="380" height="124" as="geometry" />
        </mxCell>
        <mxCell id="o2LxJ038xUt1YhMu7u4r-15" value="+&amp;nbsp; dominos : List&amp;lt;Domino&amp;gt;" style="text;strokeColor=none;fillColor=none;align=left;verticalAlign=top;spacingLeft=4;spacingRight=4;overflow=hidden;rotatable=0;points=[[0,0.5],[1,0.5]];portConstraint=eastwest;whiteSpace=wrap;html=1;" vertex="1" parent="o2LxJ038xUt1YhMu7u4r-14">
          <mxGeometry y="26" width="380" height="64" as="geometry" />
        </mxCell>
        <mxCell id="o2LxJ038xUt1YhMu7u4r-16" value="" style="line;strokeWidth=1;fillColor=none;align=left;verticalAlign=middle;spacingTop=-1;spacingLeft=3;spacingRight=3;rotatable=0;labelPosition=right;points=[];portConstraint=eastwest;strokeColor=inherit;" vertex="1" parent="o2LxJ038xUt1YhMu7u4r-14">
          <mxGeometry y="90" width="380" height="8" as="geometry" />
        </mxCell>
        <mxCell id="o2LxJ038xUt1YhMu7u4r-17" value="+&amp;nbsp;" style="text;strokeColor=none;fillColor=none;align=left;verticalAlign=top;spacingLeft=4;spacingRight=4;overflow=hidden;rotatable=0;points=[[0,0.5],[1,0.5]];portConstraint=eastwest;whiteSpace=wrap;html=1;" vertex="1" parent="o2LxJ038xUt1YhMu7u4r-14">
          <mxGeometry y="98" width="380" height="26" as="geometry" />
        </mxCell>
        <mxCell id="o2LxJ038xUt1YhMu7u4r-18" value="Domino" style="swimlane;fontStyle=1;align=center;verticalAlign=top;childLayout=stackLayout;horizontal=1;startSize=26;horizontalStack=0;resizeParent=1;resizeParentMax=0;resizeLast=0;collapsible=1;marginBottom=0;whiteSpace=wrap;html=1;" vertex="1" parent="1">
          <mxGeometry x="254" y="670" width="160" height="164" as="geometry" />
        </mxCell>
        <mxCell id="o2LxJ038xUt1YhMu7u4r-19" value="+ firtsValue&lt;br&gt;+ secondValue" style="text;strokeColor=none;fillColor=none;align=left;verticalAlign=top;spacingLeft=4;spacingRight=4;overflow=hidden;rotatable=0;points=[[0,0.5],[1,0.5]];portConstraint=eastwest;whiteSpace=wrap;html=1;" vertex="1" parent="o2LxJ038xUt1YhMu7u4r-18">
          <mxGeometry y="26" width="160" height="104" as="geometry" />
        </mxCell>
        <mxCell id="o2LxJ038xUt1YhMu7u4r-20" value="" style="line;strokeWidth=1;fillColor=none;align=left;verticalAlign=middle;spacingTop=-1;spacingLeft=3;spacingRight=3;rotatable=0;labelPosition=right;points=[];portConstraint=eastwest;strokeColor=inherit;" vertex="1" parent="o2LxJ038xUt1YhMu7u4r-18">
          <mxGeometry y="130" width="160" height="8" as="geometry" />
        </mxCell>
        <mxCell id="o2LxJ038xUt1YhMu7u4r-21" value="+ method(type): type" style="text;strokeColor=none;fillColor=none;align=left;verticalAlign=top;spacingLeft=4;spacingRight=4;overflow=hidden;rotatable=0;points=[[0,0.5],[1,0.5]];portConstraint=eastwest;whiteSpace=wrap;html=1;" vertex="1" parent="o2LxJ038xUt1YhMu7u4r-18">
          <mxGeometry y="138" width="160" height="26" as="geometry" />
        </mxCell>
      </root>
    </mxGraphModel>
  </diagram>
</mxfile>
